<svg width="285" height="629" viewBox="0 0 285 629" fill="none" xmlns="http://www.w3.org/2000/svg">
<rect width="97" height="629" fill="white"/>
<path fill-rule="evenodd" clip-rule="evenodd" d="M46.0749 45.2203C46.1547 45.1505 46.2495 45.0951 46.3539 45.0573C46.4582 45.0195 46.5701 45 46.6832 45C46.7962 45 46.9081 45.0195 47.0124 45.0573C47.1168 45.0951 47.2116 45.1505 47.2914 45.2203L57.6015 54.2203C57.6815 54.29 57.745 54.3728 57.7883 54.4639C57.8316 54.555 57.8539 54.6527 57.8539 54.7513C57.8539 54.85 57.8316 54.9477 57.7883 55.0388C57.745 55.1299 57.6815 55.2127 57.6015 55.2823L47.2914 64.2823C47.1301 64.4232 46.9113 64.5023 46.6832 64.5023C46.455 64.5023 46.2362 64.4232 46.0749 64.2823C45.9135 64.1415 45.8229 63.9505 45.8229 63.7513C45.8229 63.5522 45.9135 63.3612 46.0749 63.2203L55.7783 54.7513L46.0749 46.2823C45.9949 46.2127 45.9314 46.1299 45.8881 46.0388C45.8447 45.9477 45.8224 45.85 45.8224 45.7513C45.8224 45.6527 45.8447 45.555 45.8881 45.4639C45.9314 45.3728 45.9949 45.29 46.0749 45.2203Z" fill="#7A7A7A"/>
<path fill-rule="evenodd" clip-rule="evenodd" d="M52.9482 45.2203C53.028 45.1505 53.1228 45.0951 53.2272 45.0573C53.3316 45.0195 53.4435 45 53.5565 45C53.6695 45 53.7814 45.0195 53.8858 45.0573C53.9902 45.0951 54.085 45.1505 54.1648 45.2203L64.4749 54.2203C64.5549 54.29 64.6183 54.3728 64.6617 54.4639C64.705 54.555 64.7273 54.6527 64.7273 54.7513C64.7273 54.85 64.705 54.9477 64.6617 55.0388C64.6183 55.1299 64.5549 55.2127 64.4749 55.2823L54.1648 64.2823C54.0035 64.4232 53.7847 64.5023 53.5565 64.5023C53.3284 64.5023 53.1095 64.4232 52.9482 64.2823C52.7869 64.1415 52.6963 63.9505 52.6963 63.7513C52.6963 63.5522 52.7869 63.3612 52.9482 63.2203L62.6517 54.7513L52.9482 46.2823C52.8682 46.2127 52.8047 46.1299 52.7614 46.0388C52.7181 45.9477 52.6958 45.85 52.6958 45.7513C52.6958 45.6527 52.7181 45.555 52.7614 45.4639C52.8047 45.3728 52.8682 45.29 52.9482 45.2203Z" fill="#7A7A7A"/>
<path fill-rule="evenodd" clip-rule="evenodd" d="M271 183C273.367 183 275.286 184.791 275.286 187V188.333C275.286 190.542 273.367 192.333 271 192.333C268.633 192.333 266.714 190.542 266.714 188.333V187C266.714 184.791 268.633 183 271 183ZM281 201.667C281 201.343 281 201.019 281 200.696C281 196.447 275.734 193.667 271 193.667C266.266 193.667 261 196.447 261 200.696V201.667C261 202.403 261.64 203 262.429 203H279.571C280.36 203 281 202.403 281 201.667Z" stroke="#696969" stroke-linecap="round" stroke-linejoin="round"/>
<path d="M284.815 122.444L280.236 117.808C280.118 117.688 279.957 117.621 279.79 117.621H276.503V115.184C276.503 114.542 275.956 114 275.308 114H259.169C258.524 114 258 114.531 258 115.184V128.74C258 129.392 258.524 129.924 259.169 129.924H261.089C261.378 131.668 262.878 133 264.681 133C266.484 133 267.984 131.668 268.273 129.924H276.63C276.919 131.668 278.419 133 280.221 133C282.024 133 283.525 131.666 283.812 129.923C283.818 129.923 283.825 129.924 283.831 129.924C284.476 129.924 285 129.394 285 128.74V122.897C285 122.727 284.933 122.564 284.815 122.444ZM279.528 118.9L282.97 122.385H276.503V118.9H279.528ZM261.099 128.645H259.262V115.278H275.241V128.645H268.262C267.952 126.93 266.465 125.624 264.681 125.624C262.896 125.624 261.409 126.93 261.099 128.645ZM264.681 131.722C263.368 131.722 262.301 130.64 262.301 129.312C262.301 127.983 263.368 126.902 264.681 126.902C265.993 126.902 267.06 127.983 267.06 129.312C267.06 130.64 265.993 131.722 264.681 131.722ZM280.221 131.722C278.909 131.722 277.841 130.64 277.841 129.312C277.841 127.983 278.909 126.902 280.221 126.902C281.533 126.902 282.602 127.983 282.602 129.312C282.602 130.64 281.533 131.722 280.221 131.722ZM280.221 125.624C278.438 125.624 276.95 126.93 276.639 128.645H276.503V123.663H283.738V128.352C283.32 126.782 281.902 125.624 280.221 125.624Z" fill="#152968"/>
</svg>
