<svg width="400" height="72" viewBox="0 0 400 72" fill="none" xmlns="http://www.w3.org/2000/svg">
<path d="M362 0L370.532 24.8754H398.14L375.804 40.2492L384.336 65.1246L362 49.7508L339.664 65.1246L348.196 40.2492L325.86 24.8754H353.468L362 0Z" fill="#D9D9D9"/>
<path d="M38 0L46.5315 24.8754H74.1402L51.8043 40.2492L60.3358 65.1246L38 49.7508L15.6642 65.1246L24.1957 40.2492L1.85985 24.8754H29.4685L38 0Z" fill="#EBFF03"/>
<path d="M117 0L125.532 24.8754H153.14L130.804 40.2492L139.336 65.1246L117 49.7508L94.6642 65.1246L103.196 40.2492L80.8599 24.8754H108.468L117 0Z" fill="#EBFF03"/>
<path d="M197 0L205.532 24.8754H233.14L210.804 40.2492L219.336 65.1246L197 49.7508L174.664 65.1246L183.196 40.2492L160.86 24.8754H188.468L197 0Z" fill="#EBFF03"/>
<path d="M278 0L286.532 24.8754H314.14L291.804 40.2492L300.336 65.1246L278 49.7508L255.664 65.1246L264.196 40.2492L241.86 24.8754H269.468L278 0Z" fill="#EBFF03"/>
</svg>
