<svg width="29" height="20" viewBox="0 0 29 20" fill="none" xmlns="http://www.w3.org/2000/svg">
<path d="M28.8629 9.53375L25.8558 3.40875C25.779 3.25059 25.6507 3.11565 25.4867 3.02074C25.3227 2.92583 25.1303 2.87514 24.9336 2.875H21.9265V1.125C21.9265 0.892936 21.8209 0.670376 21.6329 0.506282C21.4449 0.342187 21.19 0.25 20.9241 0.25H1.87917C1.61332 0.25 1.35837 0.342187 1.17039 0.506282C0.982407 0.670376 0.876801 0.892936 0.876801 1.125V16C0.876801 16.2321 0.982407 16.4546 1.17039 16.6187C1.35837 16.7828 1.61332 16.875 1.87917 16.875H4.02423C4.25506 17.6164 4.75897 18.271 5.45821 18.7376C6.15746 19.2043 7.01318 19.4571 7.89336 19.4571C8.77354 19.4571 9.62927 19.2043 10.3285 18.7376C11.0278 18.271 11.5317 17.6164 11.7625 16.875H18.0574C18.2882 17.6164 18.7921 18.271 19.4913 18.7376C20.1906 19.2043 21.0463 19.4571 21.9265 19.4571C22.8067 19.4571 23.6624 19.2043 24.3616 18.7376C25.0609 18.271 25.5648 17.6164 25.7956 16.875H27.9407C28.2065 16.875 28.4615 16.7828 28.6495 16.6187C28.8374 16.4546 28.9431 16.2321 28.9431 16V9.875C28.9428 9.75771 28.9155 9.64166 28.8629 9.53375ZM21.9265 4.625H24.272L26.4171 9H21.9265V4.625ZM7.89336 17.75C7.49687 17.75 7.10927 17.6474 6.77959 17.4551C6.44992 17.2628 6.19297 16.9895 6.04123 16.6697C5.8895 16.3499 5.8498 15.9981 5.92715 15.6586C6.0045 15.3191 6.19544 15.0073 6.4758 14.7626C6.75617 14.5178 7.11338 14.3511 7.50226 14.2836C7.89114 14.2161 8.29422 14.2508 8.66054 14.3832C9.02686 14.5157 9.33996 14.74 9.56024 15.0278C9.78052 15.3155 9.8981 15.6539 9.8981 16C9.8981 16.4641 9.68688 16.9092 9.31092 17.2374C8.93496 17.5656 8.42505 17.75 7.89336 17.75ZM18.0574 15.125H11.7625C11.5317 14.3836 11.0278 13.729 10.3285 13.2624C9.62927 12.7957 8.77354 12.5429 7.89336 12.5429C7.01318 12.5429 6.15746 12.7957 5.45821 13.2624C4.75897 13.729 4.25506 14.3836 4.02423 15.125H2.88153V2H19.9218V12.99C19.4653 13.2212 19.0657 13.5289 18.7457 13.8953C18.4258 14.2616 18.1919 14.6795 18.0574 15.125ZM21.9265 17.75C21.53 17.75 21.1424 17.6474 20.8127 17.4551C20.483 17.2628 20.2261 16.9895 20.0744 16.6697C19.9226 16.3499 19.8829 15.9981 19.9603 15.6586C20.0376 15.3191 20.2286 15.0073 20.5089 14.7626C20.7893 14.5178 21.1465 14.3511 21.5354 14.2836C21.9243 14.2161 22.3274 14.2508 22.6937 14.3832C23.06 14.5157 23.3731 14.74 23.5934 15.0278C23.8136 15.3155 23.9312 15.6539 23.9312 16C23.9312 16.4641 23.72 16.9092 23.344 17.2374C22.9681 17.5656 22.4582 17.75 21.9265 17.75ZM26.9383 15.125H25.7956C25.574 14.3756 25.074 13.7114 24.3739 13.2365C23.6738 12.7615 22.8131 12.5025 21.9265 12.5V10.75H26.9383V15.125Z" fill="#878787"/>
</svg>
