<svg width="23" height="20" viewBox="0 0 23 20" fill="none" xmlns="http://www.w3.org/2000/svg">
<path fill-rule="evenodd" clip-rule="evenodd" d="M7.60849 0.466797C7.8718 0.466797 8.12433 0.558106 8.31052 0.720638C8.49671 0.883169 8.60131 1.10361 8.60131 1.33346V6.53346C8.60131 6.76332 8.49671 6.98376 8.31052 7.14629C8.12433 7.30882 7.8718 7.40013 7.60849 7.40013H1.65157C1.38826 7.40013 1.13573 7.30882 0.949543 7.14629C0.763353 6.98376 0.658752 6.76332 0.658752 6.53346C0.658752 6.30361 0.763353 6.08317 0.949543 5.92064C1.13573 5.75811 1.38826 5.6668 1.65157 5.6668H6.61567V1.33346C6.61567 1.10361 6.72027 0.883169 6.90646 0.720638C7.09265 0.558106 7.34518 0.466797 7.60849 0.466797ZM15.551 0.466797C15.8144 0.466797 16.0669 0.558106 16.2531 0.720638C16.4393 0.883169 16.5439 1.10361 16.5439 1.33346V5.6668H21.508C21.7713 5.6668 22.0238 5.75811 22.21 5.92064C22.3962 6.08317 22.5008 6.30361 22.5008 6.53346C22.5008 6.76332 22.3962 6.98376 22.21 7.14629C22.0238 7.30882 21.7713 7.40013 21.508 7.40013H15.551C15.2877 7.40013 15.0352 7.30882 14.849 7.14629C14.6628 6.98376 14.5582 6.76332 14.5582 6.53346V1.33346C14.5582 1.10361 14.6628 0.883169 14.849 0.720638C15.0352 0.558106 15.2877 0.466797 15.551 0.466797ZM0.658752 13.4668C0.658752 13.2369 0.763353 13.0165 0.949543 12.854C1.13573 12.6914 1.38826 12.6001 1.65157 12.6001H7.60849C7.8718 12.6001 8.12433 12.6914 8.31052 12.854C8.49671 13.0165 8.60131 13.2369 8.60131 13.4668V18.6668C8.60131 18.8967 8.49671 19.1171 8.31052 19.2796C8.12433 19.4422 7.8718 19.5335 7.60849 19.5335C7.34518 19.5335 7.09265 19.4422 6.90646 19.2796C6.72027 19.1171 6.61567 18.8967 6.61567 18.6668V14.3335H1.65157C1.38826 14.3335 1.13573 14.2422 0.949543 14.0796C0.763353 13.9171 0.658752 13.6967 0.658752 13.4668ZM14.5582 13.4668C14.5582 13.2369 14.6628 13.0165 14.849 12.854C15.0352 12.6914 15.2877 12.6001 15.551 12.6001H21.508C21.7713 12.6001 22.0238 12.6914 22.21 12.854C22.3962 13.0165 22.5008 13.2369 22.5008 13.4668C22.5008 13.6967 22.3962 13.9171 22.21 14.0796C22.0238 14.2422 21.7713 14.3335 21.508 14.3335H16.5439V18.6668C16.5439 18.8967 16.4393 19.1171 16.2531 19.2796C16.0669 19.4422 15.8144 19.5335 15.551 19.5335C15.2877 19.5335 15.0352 19.4422 14.849 19.2796C14.6628 19.1171 14.5582 18.8967 14.5582 18.6668V13.4668Z" fill="black"/>
</svg>
